<svg xmlns="http://www.w3.org/2000/svg" version="1.1" xmlns:xlink="http://www.w3.org/1999/xlink" xmlns:svgjs="http://svgjs.dev/svgjs" width="1000" height="750" viewBox="0 0 1000 750"><rect width="1000" height="750" fill="#fafafa"></rect><g transform="matrix(0.834,0,0,0.834,82.49454545454546,202.1618833088494)"><svg xmlns="http://www.w3.org/2000/svg" version="1.1" xmlns:xlink="http://www.w3.org/1999/xlink" xmlns:svgjs="http://svgjs.com/svgjs" viewBox="0 0 396 164" data-background-color="#fafafa" preserveAspectRatio="xMidYMid meet" height="414" width="1000"><defs></defs><g id="tight-bounds" transform="matrix(1,0,0,1,0.2400000000000091,0.09505189282978677)"><svg viewBox="0 0 395.52 163.80989621434043" height="163.80989621434043" width="395.52"><g><svg viewBox="0 0 395.52 163.80989621434043" height="163.80989621434043" width="395.52"><g transform="matrix(1,0,0,1,0,98.52951486017652)"><svg viewBox="0 0 395.52 65.2803813541639" height="65.2803813541639" width="395.52"><g><svg viewBox="0 0 395.52 65.2803813541639" height="65.2803813541639" width="395.52"><g><svg viewBox="0 0 395.52 35.209118371719335" height="35.209118371719335" width="395.52"><g transform="matrix(1,0,0,1,0,0)"><svg width="395.52" viewBox="3.05 -41 466.7 41.55" height="35.209118371719335" data-palette-color="#130912"><path d="M13.15 0L3.05 0 3.05-40.5 12.95-40.5Q18.1-40.5 20.98-39.18 23.85-37.85 25.05-35.02 26.25-32.2 26.25-27.8L26.25-27.8 26.25-13.05Q26.25-8.55 25.05-5.65 23.85-2.75 21.03-1.38 18.2 0 13.15 0L13.15 0ZM11.3-34.7L11.3-5.75 13.05-5.75Q15.35-5.75 16.32-6.48 17.3-7.2 17.55-8.63 17.8-10.05 17.8-12.15L17.8-12.15 17.8-28.85Q17.8-30.95 17.48-32.23 17.15-33.5 16.18-34.1 15.2-34.7 13-34.7L13-34.7 11.3-34.7ZM37 0.5L37 0.5Q34.95 0.5 33.47-0.55 32-1.6 31.25-3.2 30.5-4.8 30.5-6.5L30.5-6.5Q30.5-9.2 31.55-11.05 32.6-12.9 34.3-14.15 36-15.4 38.1-16.3 40.2-17.2 42.3-17.95L42.3-17.95 42.3-20.65Q42.3-21.6 42.15-22.3 42-23 41.57-23.38 41.15-23.75 40.35-23.75L40.35-23.75Q39.55-23.75 39.12-23.43 38.7-23.1 38.52-22.48 38.35-21.85 38.3-21.1L38.3-21.1 38.15-19.1 31-19.4Q31.25-24.5 33.67-26.95 36.1-29.4 41-29.4L41-29.4Q45.4-29.4 47.5-26.98 49.6-24.55 49.6-20.6L49.6-20.6 49.6-7.15Q49.6-5.45 49.67-4.13 49.75-2.8 49.87-1.78 50-0.75 50.1 0L50.1 0 43.3 0Q43.15-1.1 42.95-2.4 42.75-3.7 42.65-4.15L42.65-4.15Q42.15-2.35 40.75-0.93 39.35 0.5 37 0.5ZM39.75-4.85L39.75-4.85Q40.3-4.85 40.8-5.1 41.3-5.35 41.67-5.75 42.05-6.15 42.3-6.5L42.3-6.5 42.3-14.45Q41.25-13.8 40.35-13.18 39.45-12.55 38.8-11.8 38.15-11.05 37.8-10.15 37.45-9.25 37.45-8.1L37.45-8.1Q37.45-6.6 38.05-5.73 38.65-4.85 39.75-4.85ZM63 0.3L63 0.3Q60 0.3 58.3-0.63 56.6-1.55 55.95-3.3 55.3-5.05 55.3-7.55L55.3-7.55 55.3-23.95 52.45-23.95 52.45-28.9 55.3-28.9 55.3-37.65 62.95-37.65 62.95-28.9 67.15-28.9 67.15-23.95 62.95-23.95 62.95-8.25Q62.95-6.9 63.62-6.33 64.3-5.75 65.5-5.75L65.5-5.75Q66.09-5.75 66.65-5.83 67.2-5.9 67.65-5.95L67.65-5.95 67.65-0.05Q66.95 0.05 65.65 0.18 64.34 0.3 63 0.3ZM77.29 0.5L77.29 0.5Q75.24 0.5 73.77-0.55 72.29-1.6 71.54-3.2 70.79-4.8 70.79-6.5L70.79-6.5Q70.79-9.2 71.84-11.05 72.89-12.9 74.59-14.15 76.29-15.4 78.39-16.3 80.49-17.2 82.59-17.95L82.59-17.95 82.59-20.65Q82.59-21.6 82.44-22.3 82.29-23 81.87-23.38 81.44-23.75 80.64-23.75L80.64-23.75Q79.84-23.75 79.42-23.43 78.99-23.1 78.82-22.48 78.64-21.85 78.59-21.1L78.59-21.1 78.44-19.1 71.29-19.4Q71.54-24.5 73.97-26.95 76.39-29.4 81.29-29.4L81.29-29.4Q85.69-29.4 87.79-26.98 89.89-24.55 89.89-20.6L89.89-20.6 89.89-7.15Q89.89-5.45 89.97-4.13 90.04-2.8 90.17-1.78 90.29-0.75 90.39 0L90.39 0 83.59 0Q83.44-1.1 83.24-2.4 83.04-3.7 82.94-4.15L82.94-4.15Q82.44-2.35 81.04-0.93 79.64 0.5 77.29 0.5ZM80.04-4.85L80.04-4.85Q80.59-4.85 81.09-5.1 81.59-5.35 81.97-5.75 82.34-6.15 82.59-6.5L82.59-6.5 82.59-14.45Q81.54-13.8 80.64-13.18 79.74-12.55 79.09-11.8 78.44-11.05 78.09-10.15 77.74-9.25 77.74-8.1L77.74-8.1Q77.74-6.6 78.34-5.73 78.94-4.85 80.04-4.85ZM108.29 0.5L108.29 0.5Q106.69 0.5 105.19-0.25 103.69-1 102.34-2.2L102.34-2.2 102.34 0 94.79 0 94.79-40.5 102.34-40.5 102.34-26.75Q103.74-28 105.29-28.7 106.84-29.4 108.49-29.4L108.49-29.4Q110.24-29.4 111.44-28.63 112.64-27.85 113.39-26.55 114.14-25.25 114.44-23.65 114.74-22.05 114.74-20.4L114.74-20.4 114.74-9.1Q114.74-6.3 114.04-4.15 113.34-2 111.92-0.75 110.49 0.5 108.29 0.5ZM104.94-4.55L104.94-4.55Q105.84-4.55 106.34-5.13 106.84-5.7 107.02-6.65 107.19-7.6 107.19-8.75L107.19-8.75 107.19-20.85Q107.19-21.9 106.99-22.75 106.79-23.6 106.32-24.13 105.84-24.65 104.94-24.65L104.94-24.65Q104.24-24.65 103.59-24.33 102.94-24 102.34-23.55L102.34-23.55 102.34-5.45Q102.94-5.05 103.59-4.8 104.24-4.55 104.94-4.55ZM132.94 0.5L132.94 0.5Q131.34 0.5 129.84-0.25 128.34-1 126.99-2.2L126.99-2.2 126.99 0 119.44 0 119.44-40.5 126.99-40.5 126.99-26.75Q128.39-28 129.94-28.7 131.49-29.4 133.14-29.4L133.14-29.4Q134.89-29.4 136.09-28.63 137.29-27.85 138.04-26.55 138.79-25.25 139.09-23.65 139.39-22.05 139.39-20.4L139.39-20.4 139.39-9.1Q139.39-6.3 138.69-4.15 137.99-2 136.56-0.75 135.14 0.5 132.94 0.5ZM129.59-4.55L129.59-4.55Q130.49-4.55 130.99-5.13 131.49-5.7 131.66-6.65 131.84-7.6 131.84-8.75L131.84-8.75 131.84-20.85Q131.84-21.9 131.64-22.75 131.44-23.6 130.96-24.13 130.49-24.65 129.59-24.65L129.59-24.65Q128.89-24.65 128.24-24.33 127.59-24 126.99-23.55L126.99-23.55 126.99-5.45Q127.59-5.05 128.24-4.8 128.89-4.55 129.59-4.55ZM151.99 0L144.44 0 144.44-40.5 151.99-40.5 151.99 0ZM166.38 0.5L166.38 0.5Q163.18 0.5 161.03-0.68 158.88-1.85 157.78-4.13 156.68-6.4 156.68-9.6L156.68-9.6 156.68-19.3Q156.68-22.6 157.78-24.83 158.88-27.05 161.08-28.23 163.28-29.4 166.38-29.4L166.38-29.4Q169.68-29.4 171.73-28.2 173.78-27 174.76-24.7 175.73-22.4 175.73-19.1L175.73-19.1 175.73-14.05 164.13-14.05 164.13-8.45Q164.13-7.2 164.41-6.4 164.68-5.6 165.18-5.28 165.68-4.95 166.43-4.95L166.43-4.95Q167.13-4.95 167.66-5.28 168.18-5.6 168.43-6.3 168.68-7 168.68-8.15L168.68-8.15 168.68-10.9 175.68-10.9 175.68-8.5Q175.68-4.1 173.28-1.8 170.88 0.5 166.38 0.5ZM164.13-19.9L164.13-17.65 168.68-17.65 168.68-20.5Q168.68-21.75 168.43-22.53 168.18-23.3 167.66-23.63 167.13-23.95 166.33-23.95L166.33-23.95Q165.58-23.95 165.11-23.6 164.63-23.25 164.38-22.38 164.13-21.5 164.13-19.9L164.13-19.9ZM204.03 0L196.88 0 191.63-40.5 198.63-40.5 201.43-15.75 204.98-40.45 210.53-40.45 214.23-15.8 217.03-40.5 223.93-40.5 218.73 0 211.73 0 207.78-25.65 204.03 0ZM236.88 0.5L236.88 0.5Q233.68 0.5 231.53-0.68 229.38-1.85 228.28-4.13 227.18-6.4 227.18-9.6L227.18-9.6 227.18-19.3Q227.18-22.6 228.28-24.83 229.38-27.05 231.58-28.23 233.78-29.4 236.88-29.4L236.88-29.4Q240.18-29.4 242.23-28.2 244.28-27 245.25-24.7 246.23-22.4 246.23-19.1L246.23-19.1 246.23-14.05 234.63-14.05 234.63-8.45Q234.63-7.2 234.9-6.4 235.18-5.6 235.68-5.28 236.18-4.95 236.93-4.95L236.93-4.95Q237.63-4.95 238.15-5.28 238.68-5.6 238.93-6.3 239.18-7 239.18-8.15L239.18-8.15 239.18-10.9 246.18-10.9 246.18-8.5Q246.18-4.1 243.78-1.8 241.38 0.5 236.88 0.5ZM234.63-19.9L234.63-17.65 239.18-17.65 239.18-20.5Q239.18-21.75 238.93-22.53 238.68-23.3 238.15-23.63 237.63-23.95 236.83-23.95L236.83-23.95Q236.08-23.95 235.6-23.6 235.13-23.25 234.88-22.38 234.63-21.5 234.63-19.9L234.63-19.9ZM264.27 0.5L264.27 0.5Q262.67 0.5 261.17-0.25 259.67-1 258.32-2.2L258.32-2.2 258.32 0 250.77 0 250.77-40.5 258.32-40.5 258.32-26.75Q259.72-28 261.27-28.7 262.82-29.4 264.47-29.4L264.47-29.4Q266.22-29.4 267.42-28.63 268.62-27.85 269.37-26.55 270.12-25.25 270.42-23.65 270.72-22.05 270.72-20.4L270.72-20.4 270.72-9.1Q270.72-6.3 270.02-4.15 269.32-2 267.9-0.75 266.47 0.5 264.27 0.5ZM260.92-4.55L260.92-4.55Q261.82-4.55 262.32-5.13 262.82-5.7 263-6.65 263.17-7.6 263.17-8.75L263.17-8.75 263.17-20.85Q263.17-21.9 262.97-22.75 262.77-23.6 262.3-24.13 261.82-24.65 260.92-24.65L260.92-24.65Q260.22-24.65 259.57-24.33 258.92-24 258.32-23.55L258.32-23.55 258.32-5.45Q258.92-5.05 259.57-4.8 260.22-4.55 260.92-4.55ZM298.87 0.55L298.87 0.55Q295.12 0.55 292.62-0.83 290.12-2.2 288.84-4.98 287.57-7.75 287.37-12.05L287.37-12.05 294.47-13.25Q294.57-10.75 294.99-9.08 295.42-7.4 296.29-6.58 297.17-5.75 298.47-5.75L298.47-5.75Q300.07-5.75 300.64-6.75 301.22-7.75 301.22-9.05L301.22-9.05Q301.22-11.6 299.99-13.33 298.77-15.05 296.77-16.8L296.77-16.8 292.57-20.45Q290.32-22.35 288.89-24.75 287.47-27.15 287.47-30.65L287.47-30.65Q287.47-35.65 290.39-38.33 293.32-41 298.42-41L298.42-41Q301.47-41 303.42-40 305.37-39 306.44-37.33 307.52-35.65 307.94-33.68 308.37-31.7 308.47-29.75L308.47-29.75 301.42-28.7Q301.32-30.55 301.09-31.95 300.87-33.35 300.19-34.15 299.52-34.95 298.17-34.95L298.17-34.95Q296.72-34.95 296.02-33.88 295.32-32.8 295.32-31.5L295.32-31.5Q295.32-29.35 296.29-27.98 297.27-26.6 298.97-25.1L298.97-25.1 303.07-21.5Q305.62-19.3 307.44-16.48 309.27-13.65 309.27-9.5L309.27-9.5Q309.27-6.65 307.97-4.35 306.67-2.05 304.34-0.75 302.02 0.55 298.87 0.55ZM322.31 0.5L322.31 0.5Q319.21 0.5 317.01-0.63 314.81-1.75 313.69-3.9 312.56-6.05 312.56-9.25L312.56-9.25 312.56-19.65Q312.56-22.85 313.69-25 314.81-27.15 317.01-28.28 319.21-29.4 322.31-29.4L322.31-29.4Q325.42-29.4 327.62-28.28 329.81-27.15 330.96-25 332.12-22.85 332.12-19.65L332.12-19.65 332.12-9.25Q332.12-6.05 330.96-3.9 329.81-1.75 327.62-0.63 325.42 0.5 322.31 0.5ZM322.37-4.6L322.37-4.6Q323.31-4.6 323.81-5.13 324.31-5.65 324.46-6.58 324.62-7.5 324.62-8.7L324.62-8.7 324.62-20.15Q324.62-21.4 324.46-22.3 324.31-23.2 323.81-23.75 323.31-24.3 322.37-24.3L322.37-24.3Q321.42-24.3 320.92-23.75 320.42-23.2 320.24-22.3 320.06-21.4 320.06-20.15L320.06-20.15 320.06-8.7Q320.06-7.5 320.24-6.58 320.42-5.65 320.92-5.13 321.42-4.6 322.37-4.6ZM344.61 0L337.06 0 337.06-40.5 344.61-40.5 344.61 0ZM354.81 0.5L354.81 0.5Q353.06 0.5 351.88-0.4 350.71-1.3 350.16-2.8 349.61-4.3 349.61-6.1L349.61-6.1 349.61-28.9 357.16-28.9 357.16-7.2Q357.16-6 357.56-5.38 357.96-4.75 359.01-4.75L359.01-4.75Q359.61-4.75 360.29-5.08 360.96-5.4 361.66-5.85L361.66-5.85 361.66-28.9 369.21-28.9 369.21 0 361.66 0 361.66-2.7Q360.16-1.25 358.44-0.38 356.71 0.5 354.81 0.5ZM383.06 0.3L383.06 0.3Q380.06 0.3 378.36-0.63 376.66-1.55 376.01-3.3 375.36-5.05 375.36-7.55L375.36-7.55 375.36-23.95 372.51-23.95 372.51-28.9 375.36-28.9 375.36-37.65 383.01-37.65 383.01-28.9 387.21-28.9 387.21-23.95 383.01-23.95 383.01-8.25Q383.01-6.9 383.68-6.33 384.36-5.75 385.56-5.75L385.56-5.75Q386.16-5.75 386.71-5.83 387.26-5.9 387.71-5.95L387.71-5.95 387.71-0.05Q387.01 0.05 385.71 0.18 384.41 0.3 383.06 0.3ZM399.25 0L391.7 0 391.7-28.9 399.25-28.9 399.25 0ZM399.25-33.65L391.65-33.65 391.65-39.3 399.25-39.3 399.25-33.65ZM413.6 0.5L413.6 0.5Q410.5 0.5 408.3-0.63 406.1-1.75 404.98-3.9 403.85-6.05 403.85-9.25L403.85-9.25 403.85-19.65Q403.85-22.85 404.98-25 406.1-27.15 408.3-28.28 410.5-29.4 413.6-29.4L413.6-29.4Q416.7-29.4 418.9-28.28 421.1-27.15 422.25-25 423.4-22.85 423.4-19.65L423.4-19.65 423.4-9.25Q423.4-6.05 422.25-3.9 421.1-1.75 418.9-0.63 416.7 0.5 413.6 0.5ZM413.65-4.6L413.65-4.6Q414.6-4.6 415.1-5.13 415.6-5.65 415.75-6.58 415.9-7.5 415.9-8.7L415.9-8.7 415.9-20.15Q415.9-21.4 415.75-22.3 415.6-23.2 415.1-23.75 414.6-24.3 413.65-24.3L413.65-24.3Q412.7-24.3 412.2-23.75 411.7-23.2 411.53-22.3 411.35-21.4 411.35-20.15L411.35-20.15 411.35-8.7Q411.35-7.5 411.53-6.58 411.7-5.65 412.2-5.13 412.7-4.6 413.65-4.6ZM435.55 0L428 0 428-28.9 435.55-28.9 435.55-26Q437.1-27.55 438.83-28.48 440.55-29.4 442.5-29.4L442.5-29.4Q444.3-29.4 445.43-28.5 446.55-27.6 447.1-26.13 447.65-24.65 447.65-22.8L447.65-22.8 447.65 0 440.15 0 440.15-21.55Q440.15-22.75 439.78-23.35 439.4-23.95 438.35-23.95L438.35-23.95Q437.75-23.95 437.03-23.63 436.3-23.3 435.55-22.75L435.55-22.75 435.55 0ZM461.05 0.5L461.05 0.5Q457.3 0.5 454.87-1.33 452.45-3.15 451.1-6.95L451.1-6.95 456.4-9.15Q457.15-7.05 458.2-5.88 459.25-4.7 460.65-4.7L460.65-4.7Q461.7-4.7 462.22-5.18 462.75-5.65 462.75-6.5L462.75-6.5Q462.75-7.7 461.95-8.65 461.15-9.6 459.1-11.3L459.1-11.3 456.4-13.6Q454.3-15.4 453.02-17.18 451.75-18.95 451.75-21.6L451.75-21.6Q451.75-23.95 452.92-25.7 454.1-27.45 456.07-28.43 458.05-29.4 460.35-29.4L460.35-29.4Q463.9-29.4 466.17-27.38 468.45-25.35 469.25-21.9L469.25-21.9 464.35-19.7Q464.05-20.8 463.55-21.78 463.05-22.75 462.27-23.4 461.5-24.05 460.55-24.05L460.55-24.05Q459.65-24.05 459.1-23.5 458.55-22.95 458.55-22.1L458.55-22.1Q458.55-21.2 459.47-20.2 460.4-19.2 462.05-17.8L462.05-17.8 464.75-15.4Q465.95-14.35 467.1-13.18 468.25-12 469-10.58 469.75-9.15 469.75-7.3L469.75-7.3Q469.75-4.8 468.55-3.05 467.35-1.3 465.37-0.4 463.4 0.5 461.05 0.5Z" opacity="1" transform="matrix(1,0,0,1,0,0)" fill="#130912" class="undefined-text-0" data-fill-palette-color="primary" id="text-0"></path></svg></g></svg></g><g transform="matrix(1,0,0,1,0,43.52114620044135)"><svg viewBox="0 0 395.52 21.75923515372255" height="21.75923515372255" width="395.52"><g transform="matrix(1,0,0,1,0,0)"><svg width="395.52" viewBox="4.5 -37.5 703.45 38.7" height="21.75923515372255" data-palette-color="#130912"><path d="M13.5-1.35L4.5 0.05Q5.65-5.45 6.7-10.8L6.7-10.8Q7.15-13.05 7.6-15.5 8.05-17.95 8.47-20.33 8.9-22.7 9.22-24.93 9.55-27.15 9.8-29L9.8-29Q8.65-29.15 7.48-29.1 6.3-29.05 5.15-29.4L5.15-29.4Q5.2-30.2 5.2-31.25 5.2-32.3 5.25-33.35L5.25-33.35Q5.3-34.5 5.35-35.8L5.35-35.8Q6.65-35.7 7.95-35.65 9.25-35.6 10.55-35.6L10.55-35.6Q13.1-35.6 15.48-35.73 17.85-35.85 19.88-36.02 21.9-36.2 23.85-36.45L23.85-36.45 23.3-33.75Q23.05-32.6 22.83-31.4 22.6-30.2 22.4-29.35L22.4-29.35Q21.3-29.05 20.18-28.93 19.05-28.8 17.95-28.6L17.95-28.6Q17.6-26.9 17.2-24.83 16.8-22.75 16.43-20.53 16.05-18.3 15.7-16 15.35-13.7 15-11.6L15-11.6Q14.2-6.65 13.5-1.35L13.5-1.35ZM63.49-2.45L47.34 0.05 53.89-35.5 69.69-36.85Q69.34-35.75 69.09-34.6L69.09-34.6Q68.84-33.65 68.61-32.63 68.39-31.6 68.24-30.8L68.24-30.8Q67.74-30.75 66.81-30.73 65.89-30.7 64.84-30.68 63.79-30.65 62.71-30.65 61.64-30.65 60.84-30.65L60.84-30.65 59.09-21.7Q60.64-21.8 61.99-21.85L61.99-21.85Q63.09-21.9 64.24-21.9 65.39-21.9 65.94-21.95L65.94-21.95Q65.74-20.55 65.56-19.2 65.39-17.85 65.14-16.45L65.14-16.45Q64.64-16.4 63.51-16.38 62.39-16.35 61.24-16.3L61.24-16.3Q59.94-16.25 58.39-16.2L58.39-16.2 56.69-7 63.99-8.15 63.49-2.45ZM114.18-10.75Q112.98-8 111.5-5.98 110.03-3.95 108.4-2.58 106.78-1.2 105.13-0.55 103.48 0.1 101.93 0.1L101.93 0.1Q100.38 0.1 99.1-0.6 97.83-1.3 96.88-2.7 95.93-4.1 95.35-6.15 94.78-8.2 94.78-10.95L94.78-10.95Q94.78-15.65 96.08-20.23 97.38-24.8 99.73-28.45 102.08-32.1 105.3-34.33 108.53-36.55 112.43-36.55L112.43-36.55Q113.63-36.55 114.73-36.05 115.83-35.55 116.63-34.65 117.43-33.75 117.9-32.45 118.38-31.15 118.38-29.55L118.38-29.55Q118.38-29.25 118.38-28.93 118.38-28.6 118.33-28.25L118.33-28.25 111.78-26.5Q111.18-27.75 110.38-27.75L110.38-27.75Q109.58-27.75 108.7-26.83 107.83-25.9 106.98-24.43 106.13-22.95 105.33-21.13 104.53-19.3 103.93-17.45 103.33-15.6 102.95-13.93 102.58-12.25 102.58-11.2L102.58-11.2Q102.58-9.6 103-8.95 103.43-8.3 104.13-8.3L104.13-8.3Q104.68-8.3 105.38-8.72 106.08-9.15 106.68-9.83 107.28-10.5 107.78-11.35 108.28-12.2 108.48-13.05L108.48-13.05 114.18-10.75ZM150.47-1.5L142.77 0.1Q144.17-6.9 145.47-13.55L145.47-13.55Q145.97-16.4 146.52-19.48 147.07-22.55 147.54-25.55 148.02-28.55 148.44-31.38 148.87-34.2 149.12-36.5L149.12-36.5Q150.27-36.45 151.24-36.38 152.22-36.3 153.17-36.25 154.12-36.2 155.09-36.18 156.07-36.15 157.22-36.15L157.22-36.15Q156.37-32.6 155.54-29.05 154.72-25.5 154.02-21.9L154.02-21.9 158.97-22.45Q159.67-26 160.22-29.33 160.77-32.65 161.67-36.2L161.67-36.2Q162.82-36.4 164.22-36.52 165.62-36.65 166.82-36.75 168.02-36.85 168.84-36.93 169.67-37 169.67-37L169.67-37Q168.97-34.75 168.34-32.08 167.72-29.4 167.12-26.53 166.52-23.65 165.97-20.7 165.42-17.75 164.97-15.1L164.97-15.1Q163.87-8.75 162.92-2.1L162.92-2.1 155.12-1.2Q155.77-4.2 156.27-7.05L156.27-7.05Q156.77-9.45 157.29-12.05 157.82-14.65 158.12-16.5L158.12-16.5 153.27-16.05Q152.92-14.15 152.44-11.65 151.97-9.15 151.57-6.9L151.57-6.9Q151.02-4.2 150.47-1.5L150.47-1.5ZM200.81-1.45L193.51 0.25Q195.01-6.95 196.36-13.7L196.36-13.7Q196.86-16.6 197.43-19.7 198.01-22.8 198.51-25.83 199.01-28.85 199.41-31.63 199.81-34.4 200.01-36.65L200.01-36.65Q200.66-36.6 201.11-36.6 201.56-36.6 202.16-36.6L202.16-36.6Q202.86-36.6 203.86-36.63 204.86-36.65 205.86-36.7 206.86-36.75 208.01-36.8L208.01-36.8Q208.71-33.3 209.26-30.05L209.26-30.05Q209.81-27.2 210.38-24.2 210.96-21.2 211.41-19.1L211.41-19.1Q211.61-20.1 211.86-21.43 212.11-22.75 212.41-24.2 212.71-25.65 212.98-27.13 213.26-28.6 213.56-30.05L213.56-30.05Q214.26-33.3 215.01-36.75L215.01-36.75 221.11-37.5Q219.41-29.85 218.11-23L218.11-23Q217.51-20.05 216.93-17.03 216.36-14 215.86-11.23 215.36-8.45 215.01-6.08 214.66-3.7 214.46-2.1L214.46-2.1Q214.31-2.1 213.28-1.88 212.26-1.65 210.93-1.35 209.61-1.05 208.28-0.75 206.96-0.45 206.31-0.2L206.31-0.2Q206.01-4.2 205.66-7.8L205.66-7.8Q205.51-9.35 205.33-10.98 205.16-12.6 204.96-14.1 204.76-15.6 204.56-16.9 204.36-18.2 204.16-19.15L204.16-19.15Q204.01-18.2 203.76-16.95 203.51-15.7 203.26-14.3 203.01-12.9 202.76-11.38 202.51-9.85 202.21-8.45L202.21-8.45Q201.56-5.1 200.81-1.45L200.81-1.45ZM272.7-27.05Q272.7-22.95 271.82-19.33 270.95-15.7 269.5-12.68 268.05-9.65 266.12-7.28 264.2-4.9 262.1-3.23 260-1.55 257.85-0.68 255.7 0.2 253.75 0.2L253.75 0.2Q252.1 0.2 250.75-0.43 249.4-1.05 248.4-2.27 247.4-3.5 246.82-5.43 246.25-7.35 246.25-10.05L246.25-10.05Q246.25-12.85 246.95-15.95 247.65-19.05 248.85-22.1 250.05-25.15 251.8-27.9 253.55-30.65 255.65-32.77 257.75-34.9 260.15-36.15 262.55-37.4 265.15-37.4L265.15-37.4Q267.4-37.4 268.87-36.48 270.35-35.55 271.17-34.08 272-32.6 272.35-30.75 272.7-28.9 272.7-27.05L272.7-27.05ZM253.7-11.35Q253.7-10.8 253.9-10.2 254.1-9.6 254.45-9.15 254.8-8.7 255.32-8.38 255.85-8.05 256.45-8.05L256.45-8.05Q258.7-8.05 260.45-9.6 262.2-11.15 263.35-13.4 264.5-15.65 265.12-18.2 265.75-20.75 265.75-22.85L265.75-22.85Q265.75-23.45 265.67-24.15 265.6-24.85 265.37-25.45 265.15-26.05 264.67-26.48 264.2-26.9 263.4-26.9L263.4-26.9Q261.8-26.9 260.45-26.1 259.1-25.3 258.02-23.98 256.95-22.65 256.15-20.98 255.35-19.3 254.77-17.57 254.2-15.85 253.95-14.2 253.7-12.55 253.7-11.35L253.7-11.35ZM311.99-1.6Q310.44-1.6 308.71-1.5 306.99-1.4 305.24-1.2 303.49-1 301.81-0.68 300.14-0.35 298.79 0.1L298.79 0.1Q299.09-2.15 299.49-4.9 299.89-7.65 300.41-10.6 300.94-13.55 301.46-16.55 301.99-19.55 302.54-22.3L302.54-22.3Q303.79-28.85 305.19-35.65L305.19-35.65 313.94-36.8Q312.59-31 311.34-25.5L311.34-25.5Q310.79-23.15 310.24-20.63 309.69-18.1 309.19-15.7 308.69-13.3 308.29-11.05 307.89-8.8 307.64-7.05L307.64-7.05Q308.89-7.15 310.31-7.18 311.74-7.2 312.84-7.2L312.84-7.2Q312.89-6.25 312.99-5.33 313.09-4.4 313.21-3.65 313.34-2.9 313.41-2.33 313.49-1.75 313.54-1.55L313.54-1.55Q313.14-1.55 312.76-1.58 312.39-1.6 311.99-1.6L311.99-1.6ZM370.13-27.05Q370.13-22.95 369.25-19.33 368.38-15.7 366.93-12.68 365.48-9.65 363.55-7.28 361.63-4.9 359.53-3.23 357.43-1.55 355.28-0.68 353.13 0.2 351.18 0.2L351.18 0.2Q349.53 0.2 348.18-0.43 346.83-1.05 345.83-2.27 344.83-3.5 344.25-5.43 343.68-7.35 343.68-10.05L343.68-10.05Q343.68-12.85 344.38-15.95 345.08-19.05 346.28-22.1 347.48-25.15 349.23-27.9 350.98-30.65 353.08-32.77 355.18-34.9 357.58-36.15 359.98-37.4 362.58-37.4L362.58-37.4Q364.83-37.4 366.3-36.48 367.78-35.55 368.6-34.08 369.43-32.6 369.78-30.75 370.13-28.9 370.13-27.05L370.13-27.05ZM351.13-11.35Q351.13-10.8 351.33-10.2 351.53-9.6 351.88-9.15 352.23-8.7 352.75-8.38 353.28-8.05 353.88-8.05L353.88-8.05Q356.13-8.05 357.88-9.6 359.63-11.15 360.78-13.4 361.93-15.65 362.55-18.2 363.18-20.75 363.18-22.85L363.18-22.85Q363.18-23.45 363.1-24.15 363.03-24.85 362.8-25.45 362.58-26.05 362.1-26.48 361.63-26.9 360.83-26.9L360.83-26.9Q359.23-26.9 357.88-26.1 356.53-25.3 355.45-23.98 354.38-22.65 353.58-20.98 352.78-19.3 352.2-17.57 351.63-15.85 351.38-14.2 351.13-12.55 351.13-11.35L351.13-11.35ZM422.82-19.05Q422.47-13.95 420.82-10.18 419.17-6.4 416.84-3.85 414.52-1.3 411.84-0.05 409.17 1.2 406.77 1.2L406.77 1.2Q404.92 1.2 403.24 0.4 401.57-0.4 400.34-2.02 399.12-3.65 398.42-6.1 397.72-8.55 397.72-11.85L397.72-11.85Q397.72-18.3 399.57-23.1 401.42-27.9 404.24-31.1 407.07-34.3 410.29-35.85 413.52-37.4 416.32-37.4L416.32-37.4Q418.32-37.4 419.79-36.7 421.27-36 422.22-34.83 423.17-33.65 423.59-32.08 424.02-30.5 424.02-28.75L424.02-28.75 417.17-27.45Q416.72-29.45 415.97-30.3 415.22-31.15 414.27-31.15L414.27-31.15Q413.02-31.15 411.52-29.38 410.02-27.6 408.72-24.8 407.42-22 406.52-18.65 405.62-15.3 405.52-12.05L405.52-12.05Q405.52-8.95 406.44-7.63 407.37-6.3 408.82-6.3L408.82-6.3Q409.82-6.3 410.89-6.8 411.97-7.3 412.82-8.22 413.67-9.15 414.24-10.38 414.82-11.6 414.87-13.05L414.87-13.05 409.52-12.25 410.47-17.2Q412.82-17.5 415.07-17.8L415.07-17.8Q416.97-18.05 419.09-18.4 421.22-18.75 422.82-19.05L422.82-19.05ZM461.81-1.8L453.26-0.75 455.56-10.8Q455.56-12.95 455.48-15.48 455.41-18 455.26-20.55 455.11-23.1 454.96-25.48 454.81-27.85 454.71-29.68 454.61-31.5 454.51-32.6 454.41-33.7 454.41-33.7L454.41-33.7 462.56-36.8 462.56-30.7Q462.56-29.45 462.56-28.15 462.56-26.85 462.53-25.6 462.51-24.35 462.51-23.25 462.51-22.15 462.51-21.4L462.51-21.4Q463.16-23.1 464.08-25.6 465.01-28.1 465.81-30.45L465.81-30.45Q466.76-33.2 467.76-36.25L467.76-36.25 475.51-34.5Q473.36-30.2 471.31-25.95L471.31-25.95Q470.46-24.1 469.51-22.13 468.56-20.15 467.61-18.18 466.66-16.2 465.76-14.35 464.86-12.5 464.11-10.9L464.11-10.9Q463.86-9.6 463.48-8.05 463.11-6.5 462.76-5.1L462.76-5.1Q462.31-3.45 461.81-1.8L461.81-1.8ZM554.44-1Q553.19-0.8 551.69-0.55 550.19-0.3 548.99-0.1L548.99-0.1Q549.19-1.75 549.39-3.35L549.39-3.35Q549.54-4.75 549.66-6.15 549.79-7.55 549.89-8.55L549.89-8.55 545.54-8.55 543.54-1.35Q542.44-1.2 540.94-1.03 539.44-0.85 538.14-0.7L538.14-0.7Q536.54-0.5 534.99-0.3L534.99-0.3Q536.99-6.95 538.94-13.4L538.94-13.4Q539.74-16.1 540.61-19.05 541.49-22 542.36-24.93 543.24-27.85 544.04-30.55 544.84-33.25 545.44-35.5L545.44-35.5Q548.84-35.75 552.36-36.1 555.89-36.45 559.24-37.05L559.24-37.05Q559.09-35.45 558.91-33.08 558.74-30.7 558.59-27.9 558.44-25.1 558.29-22.05 558.14-19 557.99-16.05L557.99-16.05Q557.74-9.15 557.44-1.4L557.44-1.4Q555.94-1.15 554.44-1L554.44-1ZM549.84-26.1L546.74-13.55Q546.94-13.55 547.46-13.58 547.99-13.6 548.56-13.63 549.14-13.65 549.64-13.68 550.14-13.7 550.34-13.75L550.34-13.75Q550.34-14.05 550.41-14.78 550.49-15.5 550.56-16.43 550.64-17.35 550.74-18.45 550.84-19.55 550.94-20.6L550.94-20.6Q551.14-23.15 551.44-26.1L551.44-26.1 551.74-30.45 550.99-30.4 549.84-26.1ZM595.02-1.65L586.37 0.05Q587.87-6.7 589.22-13.15L589.22-13.15Q589.77-15.85 590.37-18.85 590.97-21.85 591.52-24.75 592.07-27.65 592.57-30.35 593.07-33.05 593.42-35.3L593.42-35.3Q594.87-35.75 596.27-36.08 597.67-36.4 599.15-36.65 600.62-36.9 601.92-36.9L601.92-36.9Q604.17-36.9 605.7-36.15 607.22-35.4 608.17-34.13 609.12-32.85 609.52-31.15 609.92-29.45 609.92-27.5L609.92-27.5Q609.92-24.7 608.9-22.1 607.87-19.5 606.15-17.48 604.42-15.45 602.2-14.25 599.97-13.05 597.57-13.05L597.57-13.05 597.02-13.05Q596.62-11.35 596.27-9.35 595.92-7.35 595.67-5.65L595.67-5.65Q595.32-3.65 595.02-1.65L595.02-1.65ZM600.32-30.85Q599.77-27.55 599.22-24.6 598.67-21.65 598.02-18.3L598.02-18.3Q598.82-18.5 599.7-19.23 600.57-19.95 601.32-21.13 602.07-22.3 602.52-23.85 602.97-25.4 602.97-27.1L602.97-27.1Q602.97-28.95 602.15-29.9 601.32-30.85 600.32-30.85L600.32-30.85ZM642.81-1.65L634.16 0.05Q635.66-6.7 637.01-13.15L637.01-13.15Q637.56-15.85 638.16-18.85 638.76-21.85 639.31-24.75 639.86-27.65 640.36-30.35 640.86-33.05 641.21-35.3L641.21-35.3Q642.66-35.75 644.06-36.08 645.46-36.4 646.94-36.65 648.41-36.9 649.71-36.9L649.71-36.9Q651.96-36.9 653.49-36.15 655.01-35.4 655.96-34.13 656.91-32.85 657.31-31.15 657.71-29.45 657.71-27.5L657.71-27.5Q657.71-24.7 656.69-22.1 655.66-19.5 653.94-17.48 652.21-15.45 649.99-14.25 647.76-13.05 645.36-13.05L645.36-13.05 644.81-13.05Q644.41-11.35 644.06-9.35 643.71-7.35 643.46-5.65L643.46-5.65Q643.11-3.65 642.81-1.65L642.81-1.65ZM648.11-30.85Q647.56-27.55 647.01-24.6 646.46-21.65 645.81-18.3L645.81-18.3Q646.61-18.5 647.49-19.23 648.36-19.95 649.11-21.13 649.86-22.3 650.31-23.85 650.76-25.4 650.76-27.1L650.76-27.1Q650.76-28.95 649.94-29.9 649.11-30.85 648.11-30.85L648.11-30.85ZM704.25-12.35Q704.25-9.55 703.18-7.28 702.1-5 700.28-3.35 698.45-1.7 695.98-0.8 693.5 0.1 690.65 0.1L690.65 0.1Q688.65 0.1 686.65-0.98 684.65-2.05 682.8-4.4L682.8-4.4 686.5-11.65Q686.85-11 687.55-10.33 688.25-9.65 689.13-9.15 690-8.65 690.88-8.33 691.75-8 692.45-8L692.45-8Q693.05-8 693.7-8.2 694.35-8.4 694.9-8.8 695.45-9.2 695.78-9.73 696.1-10.25 696.1-10.95L696.1-10.95Q696.1-12.15 695.33-13.18 694.55-14.2 693.4-15.13 692.25-16.05 690.9-17 689.55-17.95 688.43-19 687.3-20.05 686.5-21.35 685.7-22.65 685.7-24.25L685.7-24.25Q685.7-26.85 687.25-29.1 688.8-31.35 691.13-32.98 693.45-34.6 696.2-35.55 698.95-36.5 701.4-36.5L701.4-36.5Q702.75-36.5 703.95-36.18 705.15-35.85 706.03-35.13 706.9-34.4 707.43-33.3 707.95-32.2 707.95-30.55L707.95-30.55Q707.95-29.85 707.83-29.15 707.7-28.45 707.6-27.65L707.6-27.65 700.35-25.55Q700.45-25.95 700.53-26.35 700.6-26.75 700.6-27.15L700.6-27.15Q700.6-28.65 700.08-29.33 699.55-30 698.7-30L698.7-30Q698.3-30 697.73-29.7 697.15-29.4 696.58-28.93 696-28.45 695.6-27.8 695.2-27.15 695.2-26.4L695.2-26.4Q695.2-25.2 695.88-24.4 696.55-23.6 697.55-22.9 698.55-22.2 699.73-21.48 700.9-20.75 701.9-19.6 702.9-18.45 703.58-16.73 704.25-15 704.25-12.35L704.25-12.35Z" opacity="1" transform="matrix(1,0,0,1,0,0)" fill="#130912" class="undefined-text-1" data-fill-palette-color="secondary" id="text-1"></path></svg></g></svg></g></svg></g></svg></g><g transform="matrix(1,0,0,1,146.39825124248154,0)"><svg viewBox="0 0 102.72349751503693 90.21748703145451" height="90.21748703145451" width="102.72349751503693"><g><svg xmlns="http://www.w3.org/2000/svg" xmlns:xlink="http://www.w3.org/1999/xlink" version="1.1" x="8" y="0" viewBox="9.84 8.221999999999998 80.32 83.55600000000001" enable-background="new 0 0 100 100" xml:space="preserve" height="90.21748703145451" width="86.72349751503693" class="icon-icon-0" fill="#e76717" data-fill-palette-color="accent" id="icon-0"><g fill="#e76717" data-fill-palette-color="accent"><path fill="none" d="M23.352 59.069c-1.719 0-3.117 1.399-3.117 3.119 0 1.719 1.398 3.118 3.117 3.118 1.721 0 3.119-1.399 3.119-3.118C26.471 60.469 25.072 59.069 23.352 59.069z"></path><path fill="none" d="M10.844 63.986c0 1.719 1.4 3.118 3.119 3.118s3.119-1.399 3.119-3.118c0-1.72-1.4-3.118-3.119-3.118S10.844 62.267 10.844 63.986z"></path><path fill="none" d="M23.418 27.693c0-1.719-1.4-3.118-3.119-3.118s-3.119 1.399-3.119 3.118c0 1.72 1.4 3.118 3.119 3.118S23.418 29.413 23.418 27.693z"></path><path fill="none" d="M20.336 42.986c-1.719 0-3.117 1.398-3.117 3.118 0 1.719 1.398 3.118 3.117 3.118 1.721 0 3.119-1.399 3.119-3.118C23.455 44.385 22.057 42.986 20.336 42.986z"></path><path fill="none" d="M54.449 15.463c1.721 0 3.119-1.398 3.119-3.118 0-1.719-1.398-3.118-3.119-3.118-1.719 0-3.117 1.399-3.117 3.118C51.332 14.064 52.73 15.463 54.449 15.463z"></path><path fill="none" d="M82.82 27.693c0-1.719-1.398-3.118-3.119-3.118-1.719 0-3.117 1.399-3.117 3.118 0 1.72 1.398 3.118 3.117 3.118C81.422 30.812 82.82 29.413 82.82 27.693z"></path><path fill="none" d="M32.938 15.695c-1.719 0-3.117 1.399-3.117 3.118 0 1.72 1.398 3.118 3.117 3.118 1.721 0 3.119-1.398 3.119-3.118C36.057 17.095 34.658 15.695 32.938 15.695z"></path><path fill="none" d="M79.664 49.223c1.719 0 3.117-1.399 3.117-3.118 0-1.72-1.398-3.118-3.117-3.118-1.721 0-3.117 1.398-3.117 3.118C76.547 47.823 77.943 49.223 79.664 49.223z"></path><path fill="none" d="M76.648 59.069c-1.721 0-3.119 1.399-3.119 3.119 0 1.719 1.398 3.118 3.119 3.118 1.719 0 3.117-1.399 3.117-3.118C79.766 60.469 78.367 59.069 76.648 59.069z"></path><path fill="none" d="M45.104 84.537c-1.719 0-3.117 1.398-3.117 3.118 0 1.719 1.398 3.118 3.117 3.118 1.721 0 3.119-1.399 3.119-3.118C48.223 85.936 46.824 84.537 45.104 84.537z"></path><path fill="none" d="M86.037 60.868c-1.719 0-3.117 1.398-3.117 3.118 0 1.719 1.398 3.118 3.117 3.118s3.119-1.399 3.119-3.118C89.156 62.267 87.756 60.868 86.037 60.868z"></path><path fill="none" d="M66.615 78.067c-1.719 0-3.117 1.399-3.117 3.119 0 1.719 1.398 3.118 3.117 3.118 1.721 0 3.119-1.399 3.119-3.118C69.734 79.467 68.336 78.067 66.615 78.067z"></path><path d="M63.457 67.553V32.697c0-0.903-0.516-1.636-1.154-1.636h-24.59c-0.637 0-1.154 0.732-1.154 1.636v34.855c0 0.903 0.518 1.636 1.154 1.636h24.59C62.941 69.188 63.457 68.456 63.457 67.553z" fill="#e76717" data-fill-palette-color="accent"></path><path d="M45.904 19.316v4.305c-1.332 0.237-2.346 1.396-2.346 2.797 0 1.573 1.275 2.849 2.848 2.849 1.574 0 2.85-1.275 2.85-2.849 0-1.4-1.014-2.559-2.346-2.797v-4.808c0-0.277-0.225-0.502-0.504-0.502H37.01c-0.25-2.035-1.969-3.621-4.072-3.621-2.273 0-4.123 1.85-4.123 4.123s1.85 4.124 4.123 4.124c2.104 0 3.822-1.587 4.072-3.621H45.904zM32.938 21.932c-1.719 0-3.117-1.398-3.117-3.118 0-1.719 1.398-3.118 3.117-3.118 1.721 0 3.119 1.399 3.119 3.118C36.057 20.533 34.658 21.932 32.938 21.932z" fill="#e76717" data-fill-palette-color="accent"></path><path d="M53.947 16.418v7.203c-1.332 0.238-2.346 1.396-2.346 2.797 0 1.573 1.275 2.849 2.848 2.849 1.574 0 2.85-1.275 2.85-2.849 0-1.401-1.016-2.56-2.348-2.797v-7.203c2.035-0.251 3.621-1.971 3.621-4.073 0-2.273-1.848-4.123-4.123-4.123-2.273 0-4.123 1.85-4.123 4.123C50.326 14.446 51.912 16.166 53.947 16.418zM54.449 9.227c1.721 0 3.119 1.399 3.119 3.118 0 1.72-1.398 3.118-3.119 3.118-1.719 0-3.117-1.398-3.117-3.118C51.332 10.626 52.73 9.227 54.449 9.227z" fill="#e76717" data-fill-palette-color="accent"></path><path d="M66.615 77.063c-2.102 0-3.82 1.587-4.072 3.621h-8.895v-4.305c1.334-0.237 2.348-1.396 2.348-2.798 0-1.572-1.275-2.848-2.85-2.848-1.572 0-2.848 1.275-2.848 2.848 0 1.401 1.014 2.56 2.346 2.798v4.808c0 0.277 0.225 0.502 0.502 0.502h9.396c0.252 2.035 1.971 3.621 4.072 3.621 2.273 0 4.123-1.85 4.123-4.123C70.738 78.912 68.889 77.063 66.615 77.063zM66.615 84.305c-1.719 0-3.117-1.399-3.117-3.118 0-1.72 1.398-3.119 3.117-3.119 1.721 0 3.119 1.399 3.119 3.119C69.734 82.905 68.336 84.305 66.615 84.305z" fill="#e76717" data-fill-palette-color="accent"></path><path d="M45.607 83.582v-7.203c1.332-0.238 2.346-1.396 2.346-2.798 0-1.572-1.275-2.848-2.85-2.848-1.572 0-2.848 1.275-2.848 2.848 0 1.401 1.014 2.561 2.346 2.798v7.203c-2.035 0.251-3.621 1.971-3.621 4.073 0 2.273 1.85 4.123 4.123 4.123s4.125-1.85 4.125-4.123C49.229 85.554 47.641 83.834 45.607 83.582zM45.104 90.773c-1.719 0-3.117-1.399-3.117-3.118 0-1.72 1.398-3.118 3.117-3.118 1.721 0 3.119 1.398 3.119 3.118C48.223 89.374 46.824 90.773 45.104 90.773z" fill="#e76717" data-fill-palette-color="accent"></path><path d="M68.605 40.91c1.402 0 2.561-1.013 2.797-2.346h8.01c0.277 0 0.502-0.225 0.502-0.502v-6.26h-0.066c2.205-0.079 3.977-1.886 3.977-4.109 0-2.273-1.848-4.123-4.123-4.123-2.273 0-4.123 1.85-4.123 4.123 0 2.224 1.773 4.03 3.979 4.109h-0.648v5.757h-7.506c-0.236-1.333-1.395-2.346-2.797-2.346-1.572 0-2.848 1.275-2.848 2.849S67.033 40.91 68.605 40.91zM76.584 27.693c0-1.719 1.398-3.118 3.117-3.118 1.721 0 3.119 1.399 3.119 3.118 0 1.72-1.398 3.118-3.119 3.118C77.982 30.812 76.584 29.413 76.584 27.693z" fill="#e76717" data-fill-palette-color="accent"></path><path d="M86.541 59.913v-5.995c0-0.277-0.225-0.502-0.504-0.502H71.348c-0.324-1.217-1.424-2.118-2.742-2.118-1.572 0-2.848 1.275-2.848 2.849s1.275 2.848 2.848 2.848c1.479 0 2.68-1.131 2.82-2.573h14.109v5.492c-2.035 0.252-3.621 1.972-3.621 4.073 0 2.273 1.85 4.123 4.123 4.123s4.123-1.85 4.123-4.123C90.16 61.885 88.574 60.165 86.541 59.913zM86.037 67.104c-1.719 0-3.117-1.399-3.117-3.118 0-1.72 1.398-3.118 3.117-3.118s3.119 1.398 3.119 3.118C89.156 65.705 87.756 67.104 86.037 67.104z" fill="#e76717" data-fill-palette-color="accent"></path><path d="M68.605 48.952c1.402 0 2.561-1.014 2.799-2.346h4.188c0.25 2.035 1.971 3.621 4.072 3.621 2.273 0 4.123-1.85 4.123-4.123s-1.85-4.124-4.123-4.124c-2.102 0-3.82 1.587-4.072 3.62h-4.188c-0.238-1.332-1.398-2.345-2.799-2.345-1.572 0-2.848 1.275-2.848 2.849S67.033 48.952 68.605 48.952zM79.664 42.986c1.719 0 3.117 1.398 3.117 3.118 0 1.719-1.398 3.118-3.117 3.118-1.721 0-3.117-1.399-3.117-3.118C76.547 44.385 77.943 42.986 79.664 42.986z" fill="#e76717" data-fill-palette-color="accent"></path><path d="M76.648 58.064c-2.102 0-3.82 1.587-4.072 3.62h-1.172c-0.238-1.332-1.398-2.345-2.799-2.345-1.572 0-2.848 1.275-2.848 2.849s1.275 2.848 2.848 2.848c1.402 0 2.561-1.014 2.799-2.346h1.172c0.25 2.035 1.971 3.621 4.072 3.621 2.273 0 4.123-1.85 4.123-4.123S78.922 58.064 76.648 58.064zM76.648 65.307c-1.721 0-3.119-1.399-3.119-3.118 0-1.72 1.398-3.119 3.119-3.119 1.719 0 3.117 1.399 3.117 3.119C79.766 63.907 78.367 65.307 76.648 65.307z" fill="#e76717" data-fill-palette-color="accent"></path><path d="M31.395 35.214c-1.4 0-2.559 1.013-2.797 2.346h-7.506v-5.757h-0.648c2.205-0.079 3.979-1.886 3.979-4.109 0-2.273-1.85-4.123-4.123-4.123s-4.123 1.85-4.123 4.123c0 2.224 1.771 4.03 3.977 4.109h-0.066v6.26c0 0.277 0.225 0.502 0.502 0.502h8.01c0.238 1.333 1.396 2.346 2.797 2.346 1.574 0 2.848-1.274 2.848-2.848S32.969 35.214 31.395 35.214zM17.18 27.693c0-1.719 1.4-3.118 3.119-3.118s3.119 1.399 3.119 3.118c0 1.72-1.4 3.118-3.119 3.118S17.18 29.413 17.18 27.693z" fill="#e76717" data-fill-palette-color="accent"></path><path d="M31.395 51.298c-1.318 0-2.418 0.901-2.742 2.118H13.963c-0.277 0-0.504 0.225-0.504 0.502v5.995c-2.033 0.252-3.619 1.972-3.619 4.073 0 2.273 1.85 4.123 4.123 4.123s4.123-1.85 4.123-4.123c0-2.102-1.586-3.821-3.621-4.073v-5.492h14.109c0.141 1.442 1.342 2.573 2.82 2.573 1.574 0 2.848-1.274 2.848-2.848S32.969 51.298 31.395 51.298zM17.082 63.986c0 1.719-1.4 3.118-3.119 3.118s-3.119-1.399-3.119-3.118c0-1.72 1.4-3.118 3.119-3.118S17.082 62.267 17.082 63.986z" fill="#e76717" data-fill-palette-color="accent"></path><path d="M31.395 43.256c-1.4 0-2.559 1.013-2.799 2.345h-4.188c-0.25-2.033-1.971-3.62-4.072-3.62-2.273 0-4.123 1.851-4.123 4.124s1.85 4.123 4.123 4.123c2.102 0 3.822-1.586 4.072-3.621h4.188c0.238 1.332 1.398 2.346 2.799 2.346 1.572 0 2.848-1.274 2.848-2.848S32.967 43.256 31.395 43.256zM20.336 49.223c-1.719 0-3.117-1.399-3.117-3.118 0-1.72 1.398-3.118 3.117-3.118 1.721 0 3.119 1.398 3.119 3.118C23.455 47.823 22.057 49.223 20.336 49.223z" fill="#e76717" data-fill-palette-color="accent"></path><path d="M31.395 59.34c-1.4 0-2.559 1.013-2.799 2.345h-1.172c-0.25-2.033-1.971-3.62-4.072-3.62-2.273 0-4.123 1.851-4.123 4.124s1.85 4.123 4.123 4.123c2.102 0 3.822-1.586 4.072-3.621h1.172c0.238 1.332 1.398 2.346 2.799 2.346 1.572 0 2.848-1.274 2.848-2.848S32.967 59.34 31.395 59.34zM23.352 65.307c-1.719 0-3.117-1.399-3.117-3.118 0-1.72 1.398-3.119 3.117-3.119 1.721 0 3.119 1.399 3.119 3.119C26.471 63.907 25.072 65.307 23.352 65.307z" fill="#e76717" data-fill-palette-color="accent"></path></g></svg><g></g></g></svg></g><g><rect width="146.39825124248154" height="3.1751946305718093" y="86.0422924008827" x="249.12174875751845" fill="#e76717" data-fill-palette-color="accent"></rect><rect width="146.39825124248154" height="3.1751946305718093" y="86.0422924008827" x="0" fill="#e76717" data-fill-palette-color="accent"></rect><rect width="146.39825124248154" height="3.1751946305718093" y="79.69190313973908" x="249.12174875751845" fill="#e76717" data-fill-palette-color="accent"></rect><rect width="146.39825124248154" height="3.1751946305718093" y="79.69190313973908" x="0" fill="#e76717" data-fill-palette-color="accent"></rect></g></svg></g></svg><rect width="395.52" height="163.80989621434043" fill="transparent" stroke="transparent"></rect></g></svg></g></svg>